<svg xmlns="http://www.w3.org/2000/svg" shape-rendering="geometricPrecision" text-rendering="geometricPrecision" image-rendering="optimizeQuality" fill-rule="evenodd" clip-rule="evenodd" viewBox="0 0 512 512.001"><path fill="#EF4136" d="M145.306 0h221.391C446.616 0 512 65.384 512 145.306v221.392c0 79.918-65.384 145.303-145.303 145.303H145.306C65.384 512.001 0 446.616 0 366.698V145.306C0 65.384 65.384 0 145.306 0z"/><path fill="#FF7C73" d="M145.306 0h221.391c71.688 0 131.669 52.627 143.267 121.139-21.611-57.815-77.517-99.278-142.629-99.278H135.471c-48.991 0-92.773 23.473-120.653 59.722C38.534 33.379 88.206 0 145.306 0z"/><path fill="#fff" d="M178.369 169.988h155.262c5.106 0 9.272 4.254 9.272 9.273V332.74c0 5.018-4.25 9.272-9.272 9.272H178.369c-5.018 0-9.272-4.166-9.272-9.272V179.261c0-5.102 4.166-9.273 9.272-9.273z"/></svg>